<svg width="410" height="112" viewBox="0 0 410 112" fill="none" xmlns="http://www.w3.org/2000/svg">
<path fill-rule="evenodd" clip-rule="evenodd" d="M84.3265 29.6139C82.1028 27.3957 82.0998 23.7953 84.3174 21.5734C84.3202 21.5705 84.3231 21.5676 84.326 21.5647C86.5541 19.3608 90.1574 19.3666 92.3784 21.582L112.33 41.4841C114.557 43.7053 114.557 47.3125 112.33 49.5337L92.3784 69.4358C90.1516 71.657 86.5354 71.657 84.3087 69.4358C82.082 67.2146 82.082 63.6073 84.3087 61.3861L100.234 45.5L84.3265 29.6139ZM84.3174 21.5734C84.3202 21.5705 84.3231 21.5676 84.326 21.5647L84.3087 21.582C84.3116 21.5791 84.3145 21.5763 84.3174 21.5734ZM21.6216 21.5642C23.8484 19.343 27.4646 19.343 29.6913 21.5642C31.918 23.7854 31.918 27.3927 29.6913 29.6139L13.7657 45.5L29.6913 61.3683C31.918 63.5895 31.918 67.1968 29.6913 69.418C27.4646 71.6392 23.8484 71.6392 21.6216 69.418L1.67005 49.5159C-0.556684 47.2947 -0.556684 43.6875 1.67005 41.4663L21.6216 21.5642Z" fill="white"/>
<path d="M69.9685 0.222854C66.9402 -0.64786 63.7871 1.11134 62.9142 4.13218L40.1124 83.7404C39.2396 86.7612 41.0031 89.9064 44.0315 90.7772C47.0599 91.6479 50.2129 89.8887 51.0858 86.8678L73.8876 7.25965C74.7605 4.2388 72.9969 1.09357 69.9685 0.222854Z" fill="#355ADC"/>
<path d="M138.456 46.592C138.456 43.008 139.16 39.872 140.568 37.184C142.019 34.496 144.003 32.4267 146.52 30.976C149.08 29.5253 151.981 28.8 155.224 28.8C158.765 28.8 161.837 29.696 164.44 31.488C167.043 33.2373 168.877 35.52 169.944 38.336V16.64H172.824V64H169.944V54.784C168.92 57.6427 167.128 59.9893 164.568 61.824C162.008 63.616 158.893 64.512 155.224 64.512C151.981 64.512 149.08 63.7867 146.52 62.336C144.003 60.8427 142.019 58.752 140.568 56.064C139.16 53.3333 138.456 50.176 138.456 46.592ZM169.944 46.592C169.944 43.5627 169.304 40.896 168.024 38.592C166.787 36.2453 165.08 34.4533 162.904 33.216C160.728 31.936 158.296 31.296 155.608 31.296C152.792 31.296 150.317 31.9147 148.184 33.152C146.051 34.3467 144.387 36.096 143.192 38.4C141.997 40.704 141.4 43.4347 141.4 46.592C141.4 49.7493 141.997 52.48 143.192 54.784C144.387 57.088 146.051 58.8587 148.184 60.096C150.36 61.3333 152.835 61.952 155.608 61.952C158.296 61.952 160.728 61.3333 162.904 60.096C165.123 58.816 166.851 57.024 168.088 54.72C169.325 52.3733 169.944 49.664 169.944 46.592ZM214.607 44.288C214.607 45.824 214.564 46.976 214.479 47.744H184.463C184.548 50.8587 185.231 53.4827 186.51 55.616C187.791 57.7493 189.476 59.3493 191.567 60.416C193.657 61.4827 195.94 62.016 198.415 62.016C201.828 62.016 204.687 61.184 206.991 59.52C209.295 57.8133 210.745 55.5093 211.343 52.608H214.351C213.668 56.1493 211.919 59.0293 209.103 61.248C206.287 63.424 202.724 64.512 198.415 64.512C195.172 64.512 192.271 63.7867 189.711 62.336C187.151 60.8853 185.145 58.816 183.695 56.128C182.244 53.3973 181.519 50.2187 181.519 46.592C181.519 42.9653 182.223 39.808 183.631 37.12C185.081 34.432 187.087 32.384 189.647 30.976C192.207 29.5253 195.129 28.8 198.415 28.8C201.743 28.8 204.623 29.5253 207.055 30.976C209.529 32.384 211.407 34.2827 212.687 36.672C213.967 39.0187 214.607 41.5573 214.607 44.288ZM211.727 45.376C211.855 42.304 211.3 39.7013 210.062 37.568C208.868 35.4347 207.225 33.856 205.135 32.832C203.044 31.7653 200.783 31.232 198.351 31.232C195.919 31.232 193.657 31.7653 191.567 32.832C189.519 33.856 187.833 35.4347 186.51 37.568C185.231 39.7013 184.548 42.304 184.463 45.376H211.727ZM235.087 60.864L247.887 29.248H250.958L236.559 64H233.551L219.151 29.248H222.286L235.087 60.864ZM286.879 19.328V26.56H274.975V64H266.015V26.56H254.111V19.328H286.879ZM326.376 45.504C326.376 46.784 326.291 47.936 326.12 48.96H300.2C300.413 51.52 301.309 53.5253 302.888 54.976C304.467 56.4267 306.408 57.152 308.712 57.152C312.04 57.152 314.408 55.7227 315.816 52.864H325.48C324.456 56.2773 322.493 59.0933 319.592 61.312C316.691 63.488 313.128 64.576 308.904 64.576C305.491 64.576 302.419 63.8293 299.688 62.336C297 60.8 294.888 58.6453 293.352 55.872C291.859 53.0987 291.112 49.8987 291.112 46.272C291.112 42.6027 291.859 39.3813 293.352 36.608C294.845 33.8347 296.936 31.7013 299.624 30.208C302.312 28.7147 305.405 27.968 308.904 27.968C312.275 27.968 315.283 28.6933 317.928 30.144C320.616 31.5947 322.685 33.664 324.136 36.352C325.629 38.9973 326.376 42.048 326.376 45.504ZM317.096 42.944C317.053 40.64 316.221 38.8053 314.6 37.44C312.979 36.032 310.995 35.328 308.648 35.328C306.429 35.328 304.552 36.0107 303.016 37.376C301.523 38.6987 300.605 40.5547 300.264 42.944H317.096ZM330.612 46.272C330.612 42.6027 331.359 39.4027 332.852 36.672C334.345 33.8987 336.415 31.7653 339.06 30.272C341.705 28.736 344.735 27.968 348.148 27.968C352.543 27.968 356.169 29.0773 359.028 31.296C361.929 33.472 363.871 36.544 364.852 40.512H355.188C354.676 38.976 353.801 37.7813 352.564 36.928C351.369 36.032 349.876 35.584 348.084 35.584C345.524 35.584 343.497 36.5227 342.004 38.4C340.511 40.2347 339.764 42.8587 339.764 46.272C339.764 49.6427 340.511 52.2667 342.004 54.144C343.497 55.9787 345.524 56.896 348.084 56.896C351.711 56.896 354.079 55.2747 355.188 52.032H364.852C363.871 55.872 361.929 58.9227 359.028 61.184C356.127 63.4453 352.5 64.576 348.148 64.576C344.735 64.576 341.705 63.8293 339.06 62.336C336.415 60.8 334.345 58.6667 332.852 55.936C331.359 53.1627 330.612 49.9413 330.612 46.272ZM391.384 28.032C394.072 28.032 396.461 28.6293 398.552 29.824C400.643 30.976 402.264 32.704 403.416 35.008C404.611 37.2693 405.208 40 405.208 43.2V64H396.248V44.416C396.248 41.6 395.544 39.4453 394.136 37.952C392.728 36.416 390.808 35.648 388.376 35.648C385.901 35.648 383.939 36.416 382.488 37.952C381.08 39.4453 380.376 41.6 380.376 44.416V64H371.416V16.64H380.376V32.96C381.528 31.424 383.064 30.2293 384.984 29.376C386.904 28.48 389.037 28.032 391.384 28.032Z" fill="white"/>
<line x1="146" y1="71.5" x2="406" y2="71.5" stroke="white"/>
<path d="M304.304 95.32H312.208V99H299.216V95.384L306.96 84.952H299.248V81.272H312.112V84.888L304.304 95.32ZM314.525 90.072C314.525 88.28 314.877 86.6907 315.581 85.304C316.306 83.9173 317.277 82.8507 318.493 82.104C319.73 81.3573 321.106 80.984 322.621 80.984C323.943 80.984 325.095 81.2507 326.077 81.784C327.079 82.3173 327.879 82.9893 328.477 83.8V81.272H332.989V99H328.477V96.408C327.901 97.24 327.101 97.9333 326.077 98.488C325.074 99.0213 323.911 99.288 322.589 99.288C321.095 99.288 319.73 98.904 318.493 98.136C317.277 97.368 316.306 96.2907 315.581 94.904C314.877 93.496 314.525 91.8853 314.525 90.072ZM328.477 90.136C328.477 89.048 328.263 88.12 327.837 87.352C327.41 86.5627 326.834 85.9653 326.109 85.56C325.383 85.1333 324.605 84.92 323.773 84.92C322.941 84.92 322.173 85.1227 321.469 85.528C320.765 85.9333 320.189 86.5307 319.741 87.32C319.314 88.088 319.101 89.0053 319.101 90.072C319.101 91.1387 319.314 92.0773 319.741 92.888C320.189 93.6773 320.765 94.2853 321.469 94.712C322.194 95.1387 322.962 95.352 323.773 95.352C324.605 95.352 325.383 95.1493 326.109 94.744C326.834 94.3173 327.41 93.72 327.837 92.952C328.263 92.1627 328.477 91.224 328.477 90.136ZM347.188 81.016C349.3 81.016 351.007 81.688 352.308 83.032C353.61 84.3547 354.26 86.2107 354.26 88.6V99H349.78V89.208C349.78 87.8 349.428 86.7227 348.724 85.976C348.02 85.208 347.06 84.824 345.844 84.824C344.607 84.824 343.626 85.208 342.9 85.976C342.196 86.7227 341.844 87.8 341.844 89.208V99H337.364V81.272H341.844V83.48C342.442 82.712 343.199 82.1147 344.116 81.688C345.055 81.24 346.079 81.016 347.188 81.016ZM375.001 89.752C375.001 90.392 374.958 90.968 374.873 91.48H361.913C362.019 92.76 362.467 93.7627 363.257 94.488C364.046 95.2133 365.017 95.576 366.169 95.576C367.833 95.576 369.017 94.8613 369.721 93.432H374.553C374.041 95.1387 373.059 96.5467 371.609 97.656C370.158 98.744 368.377 99.288 366.265 99.288C364.558 99.288 363.022 98.9147 361.657 98.168C360.313 97.4 359.257 96.3227 358.489 94.936C357.742 93.5493 357.368 91.9493 357.368 90.136C357.368 88.3013 357.742 86.6907 358.489 85.304C359.235 83.9173 360.281 82.8507 361.625 82.104C362.969 81.3573 364.515 80.984 366.265 80.984C367.95 80.984 369.454 81.3467 370.777 82.072C372.121 82.7973 373.155 83.832 373.881 85.176C374.627 86.4987 375.001 88.024 375.001 89.752ZM370.361 88.472C370.339 87.32 369.923 86.4027 369.113 85.72C368.302 85.016 367.31 84.664 366.137 84.664C365.027 84.664 364.089 85.0053 363.321 85.688C362.574 86.3493 362.115 87.2773 361.945 88.472H370.361ZM383.487 84.952V93.528C383.487 94.1253 383.625 94.5627 383.903 94.84C384.201 95.096 384.692 95.224 385.375 95.224H387.455V99H384.639C380.863 99 378.975 97.1653 378.975 93.496V84.952H376.863V81.272H378.975V76.888H383.487V81.272H387.455V84.952H383.487ZM395.893 84.952V93.528C395.893 94.1253 396.031 94.5627 396.309 94.84C396.607 95.096 397.098 95.224 397.781 95.224H399.861V99H397.045C393.269 99 391.381 97.1653 391.381 93.496V84.952H389.269V81.272H391.381V76.888H395.893V81.272H399.861V84.952H395.893ZM405.355 79.16C404.566 79.16 403.904 78.9147 403.371 78.424C402.859 77.912 402.603 77.2827 402.603 76.536C402.603 75.7893 402.859 75.1707 403.371 74.68C403.904 74.168 404.566 73.912 405.355 73.912C406.144 73.912 406.795 74.168 407.307 74.68C407.84 75.1707 408.107 75.7893 408.107 76.536C408.107 77.2827 407.84 77.912 407.307 78.424C406.795 78.9147 406.144 79.16 405.355 79.16ZM407.563 81.272V99H403.083V81.272H407.563Z" fill="white"/>
</svg>
