<svg width="1440" height="120" viewBox="0 0 1440 120" fill="none" xmlns="http://www.w3.org/2000/svg">
<path d="M0 64H48C96 64 192 64 288 53.3C384 43 480 21 576 37.3C672 53 768 107 864 117.3C960 128 1056 96 1152 80C1248 64 1344 64 1392 64H1440V0H1392C1344 0 1248 0 1152 0C1056 0 960 0 864 0C768 0 672 0 576 0C480 0 384 0 288 0C192 0 96 0 48 0H0V64Z" fill="url(#paint0_linear_4_3)"/>
<defs>
<linearGradient id="paint0_linear_4_3" x1="720" y1="0" x2="720" y2="119.445" gradientUnits="userSpaceOnUse">
<stop stop-color="#758BFD"/>
<stop offset="1" stop-color="#AEB8FE"/>
</linearGradient>
</defs>
</svg>
