<svg xmlns:mydata="http://www.w3.org/2000/svg" mydata:contrastcolor="ffffff" mydata:template="Default" mydata:presentation="2.5" mydata:layouttype="undefined" mydata:specialfontid="undefined" mydata:id1="001" mydata:id2="126" mydata:companyname="Code Zanetti" mydata:companytagline="Developer" version="1.1" xmlns="http://www.w3.org/2000/svg" xmlns:xlink="http://www.w3.org/1999/xlink" viewBox="0 0 550 470"><g fill="#3d3935" fill-rule="none" stroke="none" stroke-width="1" stroke-linecap="butt" stroke-linejoin="miter" stroke-miterlimit="10" stroke-dasharray="" stroke-dashoffset="0" font-family="none" font-weight="none" font-size="none" text-anchor="none" style="mix-blend-mode: normal"><g data-paper-data="{&quot;isGlobalGroup&quot;:true,&quot;bounds&quot;:{&quot;x&quot;:146,&quot;y&quot;:105.99999999999999,&quot;width&quot;:258,&quot;height&quot;:258}}"><g data-paper-data="{&quot;isSecondaryText&quot;:true}" fill-rule="nonzero"><path d="M221.45427,285.75821h-1.22491c-0.06316,0 -0.11843,-0.02369 -0.1658,-0.07106c-0.04737,-0.04737 -0.07106,-0.10264 -0.07106,-0.1658v-4.60187c0,-0.06316 0.02369,-0.1173 0.07106,-0.16242c0.04737,-0.04512 0.10264,-0.06767 0.1658,-0.06767h1.26551c0.39702,0 0.75232,0.05752 1.06587,0.17257c0.31356,0.11505 0.57862,0.28085 0.79518,0.49741c0.21656,0.21656 0.38236,0.48162 0.49741,0.79518c0.11505,0.31356 0.17257,0.66885 0.17257,1.06587c0,0.39251 -0.05978,0.74442 -0.17934,1.05572c-0.11956,0.3113 -0.291,0.57749 -0.51433,0.79856c-0.22333,0.22107 -0.4929,0.39026 -0.80871,0.50756c-0.31581,0.1173 -0.67223,0.17595 -1.06926,0.17595zM220.46622,285.28449h0.98805c0.67223,0 1.18994,-0.17934 1.55313,-0.53801c0.36319,-0.35867 0.54478,-0.86736 0.54478,-1.52606c0,-0.67223 -0.17595,-1.1843 -0.52786,-1.53621c-0.35191,-0.35191 -0.86172,-0.52786 -1.52944,-0.52786h-1.02865z" data-paper-data="{&quot;glyphName&quot;:&quot;D&quot;,&quot;glyphIndex&quot;:0,&quot;firstGlyphOfWord&quot;:true,&quot;word&quot;:1}"></path><path d="M233.52807,281.15634v1.58358h2.21972l-0.14212,0.47372h-2.07761v2.07084h2.72052v0.47372h-2.95738c-0.06316,0 -0.11843,-0.02369 -0.1658,-0.07106c-0.04737,-0.04737 -0.07106,-0.10264 -0.07106,-0.1658v-4.60187c0,-0.06316 0.02369,-0.1173 0.07106,-0.16242c0.04737,-0.04512 0.10264,-0.06767 0.1658,-0.06767h2.95738v0.46695z" data-paper-data="{&quot;glyphName&quot;:&quot;E&quot;,&quot;glyphIndex&quot;:1,&quot;word&quot;:1}"></path><path d="M247.79254,285.79881c-0.04963,0 -0.09362,-0.01241 -0.13197,-0.03722c-0.03835,-0.02481 -0.06655,-0.05752 -0.08459,-0.09813l-2.20619,-4.97408h0.52786l1.89489,4.29056l1.90165,-4.29056h0.51433l-2.19942,4.97408c-0.04512,0.09023 -0.1173,0.13535 -0.21656,0.13535z" data-paper-data="{&quot;glyphName&quot;:&quot;V&quot;,&quot;glyphIndex&quot;:2,&quot;word&quot;:1}"></path><path d="M260.07784,281.15634v1.58358h2.21972l-0.14212,0.47372h-2.07761v2.07084h2.72052v0.47372h-2.95738c-0.06316,0 -0.11843,-0.02369 -0.1658,-0.07106c-0.04737,-0.04737 -0.07106,-0.10264 -0.07106,-0.1658v-4.60187c0,-0.06316 0.02369,-0.1173 0.07106,-0.16242c0.04737,-0.04512 0.10264,-0.06767 0.1658,-0.06767h2.95738v0.46695z" data-paper-data="{&quot;glyphName&quot;:&quot;E&quot;,&quot;glyphIndex&quot;:3,&quot;word&quot;:1}"></path><path d="M275.22967,285.28449l-0.14212,0.47372h-2.95738c-0.06316,0 -0.11843,-0.02369 -0.1658,-0.07106c-0.04737,-0.04737 -0.07106,-0.10264 -0.07106,-0.1658v-4.83196h0.47372v4.5951z" data-paper-data="{&quot;glyphName&quot;:&quot;L&quot;,&quot;glyphIndex&quot;:4,&quot;word&quot;:1}"></path><path d="M287.38516,285.79881c-0.40605,0 -0.76811,-0.05865 -1.08618,-0.17595c-0.31807,-0.1173 -0.58764,-0.28649 -0.80871,-0.50756c-0.22107,-0.22107 -0.39026,-0.49064 -0.50756,-0.80871c-0.1173,-0.31807 -0.17595,-0.68013 -0.17595,-1.08618c0,-0.40154 0.05865,-0.76247 0.17595,-1.08279c0.1173,-0.32033 0.28649,-0.59102 0.50756,-0.81209c0.22107,-0.22107 0.49064,-0.39026 0.80871,-0.50756c0.31807,-0.1173 0.68013,-0.17595 1.08618,-0.17595c0.40605,0 0.76811,0.05865 1.08618,0.17595c0.31807,0.1173 0.58764,0.28649 0.80871,0.50756c0.22107,0.22107 0.39026,0.49177 0.50756,0.81209c0.1173,0.32033 0.17595,0.68126 0.17595,1.08279c0,0.40605 -0.05865,0.76811 -0.17595,1.08618c-0.1173,0.31807 -0.28649,0.58764 -0.50756,0.80871c-0.22107,0.22107 -0.49064,0.39026 -0.80871,0.50756c-0.31807,0.1173 -0.68013,0.17595 -1.08618,0.17595zM287.38516,281.11573c-0.68577,0 -1.20799,0.18047 -1.56667,0.5414c-0.35867,0.36093 -0.53801,0.88202 -0.53801,1.56328c0,0.68577 0.17934,1.20912 0.53801,1.57005c0.35867,0.36093 0.8809,0.5414 1.56667,0.5414c0.68577,0 1.20799,-0.18047 1.56667,-0.5414c0.35867,-0.36093 0.53801,-0.88428 0.53801,-1.57005c0,-0.68126 -0.17934,-1.20235 -0.53801,-1.56328c-0.35867,-0.36093 -0.8809,-0.5414 -1.56667,-0.5414z" data-paper-data="{&quot;glyphName&quot;:&quot;O&quot;,&quot;glyphIndex&quot;:5,&quot;word&quot;:1}"></path><path d="M302.77672,280.68938c0.20302,0.00451 0.39364,0.04624 0.57185,0.1252c0.17821,0.07895 0.33499,0.1861 0.47034,0.32145c0.13535,0.13535 0.24137,0.29438 0.31807,0.47711c0.0767,0.18272 0.11505,0.37559 0.11505,0.57862c0,0.20754 -0.03948,0.40266 -0.11843,0.58538c-0.07895,0.18272 -0.18723,0.34288 -0.32484,0.48049c-0.1376,0.1376 -0.29777,0.24588 -0.48049,0.32484c-0.18272,0.07895 -0.37785,0.11843 -0.58538,0.11843h-1.90842v2.05731h-0.47372v-4.83873c0,-0.06316 0.02369,-0.1173 0.07106,-0.16242c0.04737,-0.04512 0.10264,-0.06767 0.1658,-0.06767h2.16558zM302.74289,283.23395c0.13986,0 0.27295,-0.02707 0.39928,-0.08121c0.12633,-0.05414 0.23686,-0.12858 0.33161,-0.22333c0.09474,-0.09474 0.16919,-0.20528 0.22333,-0.33161c0.05414,-0.12633 0.08121,-0.26167 0.08121,-0.40605c0,-0.13986 -0.02707,-0.27295 -0.08121,-0.39928c-0.05414,-0.12633 -0.12858,-0.23686 -0.22333,-0.33161c-0.09474,-0.09474 -0.20528,-0.16919 -0.33161,-0.22333c-0.12633,-0.05414 -0.25942,-0.08121 -0.39928,-0.08121h-1.90842v2.07761z" data-paper-data="{&quot;glyphName&quot;:&quot;P&quot;,&quot;glyphIndex&quot;:6,&quot;word&quot;:1}"></path><path d="M313.61946,281.15634v1.58358h2.21972l-0.14212,0.47372h-2.07761v2.07084h2.72052v0.47372h-2.95738c-0.06316,0 -0.11843,-0.02369 -0.1658,-0.07106c-0.04737,-0.04737 -0.07106,-0.10264 -0.07106,-0.1658v-4.60187c0,-0.06316 0.02369,-0.1173 0.07106,-0.16242c0.04737,-0.04512 0.10264,-0.06767 0.1658,-0.06767h2.95738v0.46695z" data-paper-data="{&quot;glyphName&quot;:&quot;E&quot;,&quot;glyphIndex&quot;:7,&quot;word&quot;:1}"></path><path d="M329.39813,285.75821l-1.64449,-2.04377h-1.55651v2.04377h-0.47372v-4.82519c0,-0.06316 0.02369,-0.11843 0.07106,-0.1658c0.04737,-0.04737 0.10264,-0.07106 0.1658,-0.07106h2.16558h0.01353c0.20302,0.00451 0.39364,0.04737 0.57185,0.12858c0.17821,0.08121 0.33499,0.18949 0.47034,0.32484c0.13535,0.13535 0.24137,0.29438 0.31807,0.47711c0.0767,0.18272 0.11505,0.37559 0.11505,0.57862c0,0.18949 -0.03271,0.3677 -0.09813,0.53463c-0.06542,0.16693 -0.15565,0.31694 -0.2707,0.45004c-0.11505,0.13309 -0.24927,0.24363 -0.40266,0.33161c-0.1534,0.08798 -0.32033,0.1455 -0.50079,0.17257l1.66479,2.06407zM326.19713,283.24071h1.90842c0.13986,0 0.27295,-0.02707 0.39928,-0.08121c0.12633,-0.05414 0.23686,-0.12858 0.33161,-0.22333c0.09474,-0.09474 0.16919,-0.20415 0.22333,-0.32822c0.05414,-0.12407 0.08121,-0.25829 0.08121,-0.40266c0,-0.14437 -0.02707,-0.27972 -0.08121,-0.40605c-0.05414,-0.12633 -0.12858,-0.23573 -0.22333,-0.32822c-0.09474,-0.09249 -0.20528,-0.1658 -0.33161,-0.21994c-0.12633,-0.05414 -0.25942,-0.08121 -0.39928,-0.08121h-1.90842z" data-paper-data="{&quot;glyphName&quot;:&quot;R&quot;,&quot;glyphIndex&quot;:8,&quot;lastGlyphOfWord&quot;:true,&quot;word&quot;:1}"></path></g><g data-paper-data="{&quot;isPrimaryText&quot;:true}" fill-rule="nonzero"><path d="M200.6974,267.28219c-0.49551,2.6427 -2.71349,4.55394 -5.35619,4.55394c-2.94945,0 -5.28541,-2.47753 -5.28541,-5.56855c0,-3.11462 2.33596,-5.61575 5.28541,-5.61575c1.81686,0 3.61012,0.92023 4.88428,2.80787l2.85506,-2.02922c-1.5809,-2.57192 -4.48316,-4.2708 -7.76294,-4.2708c-5.00226,0 -9.01351,4.08203 -9.01351,9.10789c0,5.02586 4.01125,9.08429 9.0371,9.08429c4.67192,0 8.5416,-3.56293 9.0607,-8.06968z" data-paper-data="{&quot;glyphName&quot;:&quot;C&quot;,&quot;glyphIndex&quot;:0,&quot;firstGlyphOfWord&quot;:true,&quot;word&quot;:1}"></path><path d="M215.1143,275.35187c5.02586,0 9.08429,-4.08203 9.08429,-9.10789c0,-5.02586 -4.05844,-9.08429 -9.10789,-9.08429c-5.02586,0 -9.08429,4.05844 -9.08429,9.08429c0,5.02586 4.05844,9.10789 9.10789,9.10789zM215.0907,260.65183c2.97304,0 5.35619,2.50113 5.35619,5.59215c0,3.13821 -2.35956,5.59215 -5.3326,5.59215c-3.02023,0 -5.35619,-2.45394 -5.35619,-5.59215c0,-3.09102 2.33596,-5.59215 5.3326,-5.59215z" data-paper-data="{&quot;glyphName&quot;:&quot;O&quot;,&quot;glyphIndex&quot;:1,&quot;word&quot;:1}"></path><path d="M226.8177,257.46643v17.5787h7.14946c5.04945,0 9.17868,-3.7517 9.17868,-8.80115c0,-5.00226 -4.12922,-8.77755 -9.20227,-8.77755zM230.47501,271.74175v-10.97194h3.46855c3.06742,0 5.45058,2.28877 5.45058,5.47417c0,3.16181 -2.38315,5.49777 -5.42698,5.49777z" data-paper-data="{&quot;glyphName&quot;:&quot;D&quot;,&quot;glyphIndex&quot;:2,&quot;word&quot;:1}"></path><path d="M256.66609,275.04513v-3.30338h-7.24384v-4.38878h6.60676v-3.30338h-6.60676v-3.27978h5.68653v-3.30338h-9.34385v17.5787z" data-paper-data="{&quot;glyphName&quot;:&quot;E&quot;,&quot;glyphIndex&quot;:3,&quot;lastGlyphOfWord&quot;:true,&quot;word&quot;:1}"></path><path d="M273.74929,271.74175l9.22587,-14.27532h-14.41689v3.30338h8.21126l-9.10789,14.27532h15.62027v-3.30338z" data-paper-data="{&quot;glyphName&quot;:&quot;Z&quot;,&quot;glyphIndex&quot;:4,&quot;firstGlyphOfWord&quot;:true,&quot;word&quot;:2}"></path><path d="M298.07632,275.04513h3.98765l-9.29665,-17.88544l-9.27306,17.88544h3.77529l1.13259,-2.35956h8.518zM292.62574,263.90802l2.68989,5.47417h-5.3326z" data-paper-data="{&quot;glyphName&quot;:&quot;A&quot;,&quot;glyphIndex&quot;:5,&quot;word&quot;:2}"></path><path d="M316.10333,267.63612l-12.50565,-10.50003v17.90904h3.65731v-10.0989l12.50565,10.40565v-17.88544h-3.65731z" data-paper-data="{&quot;glyphName&quot;:&quot;N&quot;,&quot;glyphIndex&quot;:6,&quot;word&quot;:2}"></path><path d="M334.01237,275.04513v-3.30338h-7.24384v-4.38878h6.60676v-3.30338h-6.60676v-3.27978h5.68653v-3.30338h-9.34385v17.5787z" data-paper-data="{&quot;glyphName&quot;:&quot;E&quot;,&quot;glyphIndex&quot;:7,&quot;word&quot;:2}"></path><path d="M342.78992,275.04513v-14.27532h7.12586v14.27532h3.63372v-14.27532h4.36518v-3.30338h-23.10006v3.30338h4.31799v14.27532z" data-paper-data="{&quot;glyphName&quot;:&quot;special;TT&quot;,&quot;glyphIndex&quot;:8,&quot;word&quot;:2}"></path><path d="M363.6956,257.46643h-3.65731v17.5787h3.65731z" data-paper-data="{&quot;glyphName&quot;:&quot;I&quot;,&quot;glyphIndex&quot;:9,&quot;lastGlyphOfWord&quot;:true,&quot;word&quot;:2}"></path></g><g data-paper-data="{&quot;fillRule&quot;:&quot;evenodd&quot;,&quot;fillRuleOriginal&quot;:&quot;evenodd&quot;,&quot;isIcon&quot;:true,&quot;iconStyle&quot;:&quot;standalone&quot;,&quot;selectedEffects&quot;:{&quot;container&quot;:&quot;&quot;,&quot;transformation&quot;:&quot;&quot;,&quot;pattern&quot;:&quot;&quot;},&quot;bounds&quot;:{&quot;x&quot;:238.92708534652246,&quot;y&quot;:184.20089216493318,&quot;width&quot;:72.14553297969036,&quot;height&quot;:61.045942730765034},&quot;iconType&quot;:&quot;icon&quot;,&quot;rawIconId&quot;:&quot;16654&quot;,&quot;combineTerms&quot;:&quot;code&quot;,&quot;isDetailed&quot;:false,&quot;suitableAsStandaloneIcon&quot;:true}" fill-rule="evenodd"><path d="M238.92709,184.20089v61.04594h72.14553v-61.04594zM305.52246,239.69812h-61.04594v-44.39764h61.04594zM250.12479,222.17974l19.09476,-7.5861v-0.01587l0.0101,0.00433v-6.02559l-0.0101,0.00433v-0.01587l-19.09476,-7.5861l-0.00433,6.03425l11.52308,4.57619l-11.52308,4.57691zM269.22965,222.18047h19.10991v5.60932h-19.10991z" data-paper-data="{&quot;isPathIcon&quot;:true}"></path></g><g data-paper-data="{&quot;isContainerElementsWrapper&quot;:true}" fill-rule="evenodd"><path d="M183.78317,143.78317c-11.90234,11.90234 -21.11741,25.57021 -27.64523,41.00361c-6.75862,15.97909 -10.13794,32.71679 -10.13794,50.21308c0,17.49657 3.37931,34.23427 10.13794,50.21308c6.52852,15.43442 15.74359,29.1023 27.64522,41.00365c11.90358,11.90304 25.57145,21.11812 41.00361,27.64522c15.97994,6.7588 32.71763,10.1382 50.21308,10.1382c17.49629,0 34.23398,-3.3794 50.21308,-10.1382c15.43301,-6.52738 29.10089,-15.74246 41.00365,-27.64522c11.90333,-11.90361 21.1184,-25.57149 27.64522,-41.00365c6.7588,-15.98022 10.1382,-32.71792 10.1382,-50.21308c0,-17.49516 -3.3794,-34.23285 -10.1382,-50.21308c-6.52738,-15.43255 -15.74246,-29.10042 -27.64522,-41.00361c-11.90191,-11.90234 -25.5698,-21.11741 -41.00365,-27.64522c-15.97966,-6.75863 -32.71735,-10.13795 -50.21308,-10.13795c-17.49544,0 -34.23314,3.37932 -50.21308,10.13795c-15.43329,6.52761 -29.10116,15.74268 -41.00361,27.64522zM148.04423,234.99985c0,-17.21972 3.32549,-33.69185 9.97647,-49.41638c6.42425,-15.18878 15.49356,-28.64038 27.20794,-40.35482c11.71461,-11.71466 25.16621,-20.78397 40.35482,-27.20792c15.7251,-6.65099 32.19723,-9.97649 49.41638,-9.97649c17.21915,0 33.69128,3.3255 49.41638,9.97649c15.18917,6.42412 28.64088,15.49343 40.35512,27.20792c11.7148,11.71562 20.78397,25.16723 27.2075,40.35482c6.65099,15.72538 9.97649,32.19751 9.97649,49.41638c0,17.21887 -3.3255,33.691 -9.97649,49.41638c-6.42296,15.18776 -15.49213,28.63947 -27.2075,40.35512c-11.71452,11.71396 -25.16623,20.78312 -40.35512,27.2075c-15.72482,6.65099 -32.19695,9.97649 -49.41638,9.97649c-17.21831,0 -33.69043,-3.3255 -49.41638,-9.97649c-15.18804,-6.42353 -28.63965,-15.49269 -40.35482,-27.2075c-11.71368,-11.71339 -20.78299,-25.1651 -27.20795,-40.35512c-6.65098,-15.72369 -9.97646,-32.19582 -9.97646,-49.41638z" data-paper-data="{&quot;isBaseLogoContainer&quot;:true}"></path></g></g></g></svg>